<svg width="45" height="79" viewBox="0 0 45 79" fill="none" xmlns="http://www.w3.org/2000/svg">
<path d="M12.9545 0.000248255C12.0258 0.104479 11.1891 0.89408 10.9412 1.90125L0.073797 46.2275C-0.315329 47.7764 0.892642 49.5508 2.3295 49.541H11.596L4.7552 74.8557C4.45808 75.9767 4.93326 77.2942 5.84302 77.8687C6.75278 78.4437 8.00562 78.2189 8.7093 77.3542L44.4159 33.0279C45.0096 32.2844 45.1698 31.1434 44.8083 30.232C44.4473 29.3205 43.5841 28.6879 42.6932 28.6818H30.6617L40.1707 3.61228C40.7568 2.03969 39.5575 0.0102388 38.0362 0H12.9534L12.9545 0.000248255ZM14.9921 5.21537H34.5191L25.0345 30.2585C24.7309 31.0469 24.8055 32.0038 25.2266 32.7219C25.6477 33.4394 26.4021 33.8963 27.169 33.8981H37.454L12.2258 65.1885L16.9802 47.6693C17.385 46.1222 16.1879 44.3308 14.7483 44.3285H5.38499L14.9921 5.21537Z" fill="white"/>
</svg>
